<svg xmlns="http://www.w3.org/2000/svg" width="200" height="200" viewBox="0 0 200 200">
  <defs>
    <radialGradient id="sparkle1">
      <stop offset="0%" style="stop-color:#ffffff;stop-opacity:1" />
      <stop offset="100%" style="stop-color:#a0c4ff;stop-opacity:0" />
    </radialGradient>
    <radialGradient id="sparkle2">
      <stop offset="0%" style="stop-color:#d0e7ff;stop-opacity:0.8" />
      <stop offset="100%" style="stop-color:#6b9bd1;stop-opacity:0" />
    </radialGradient>
  </defs>
  
  <!-- Large sparkles -->
  <circle cx="20" cy="30" r="2" fill="url(#sparkle1)" opacity="0.9"/>
  <circle cx="180" cy="50" r="1.5" fill="url(#sparkle2)" opacity="0.7"/>
  <circle cx="100" cy="20" r="2.5" fill="url(#sparkle1)" opacity="0.8"/>
  <circle cx="150" cy="180" r="2" fill="url(#sparkle2)" opacity="0.9"/>
  <circle cx="40" cy="160" r="1.8" fill="url(#sparkle1)" opacity="0.6"/>
  
  <!-- Medium sparkles -->
  <circle cx="60" cy="80" r="1.2" fill="url(#sparkle1)" opacity="0.7"/>
  <circle cx="140" cy="100" r="1" fill="url(#sparkle2)" opacity="0.8"/>
  <circle cx="90" cy="140" r="1.3" fill="url(#sparkle1)" opacity="0.6"/>
  <circle cx="170" cy="120" r="1.1" fill="url(#sparkle2)" opacity="0.7"/>
  <circle cx="30" cy="110" r="1.4" fill="url(#sparkle1)" opacity="0.8"/>
  <circle cx="120" cy="60" r="1" fill="url(#sparkle2)" opacity="0.6"/>
  
  <!-- Small sparkles -->
  <circle cx="50" cy="50" r="0.8" fill="url(#sparkle1)" opacity="0.5"/>
  <circle cx="130" cy="40" r="0.6" fill="url(#sparkle2)" opacity="0.6"/>
  <circle cx="80" cy="100" r="0.7" fill="url(#sparkle1)" opacity="0.7"/>
  <circle cx="160" cy="160" r="0.8" fill="url(#sparkle2)" opacity="0.5"/>
  <circle cx="70" cy="170" r="0.6" fill="url(#sparkle1)" opacity="0.6"/>
  <circle cx="110" cy="130" r="0.7" fill="url(#sparkle2)" opacity="0.7"/>
  <circle cx="190" cy="90" r="0.8" fill="url(#sparkle1)" opacity="0.5"/>
  <circle cx="10" cy="70" r="0.6" fill="url(#sparkle2)" opacity="0.6"/>
  <circle cx="145" cy="25" r="0.7" fill="url(#sparkle1)" opacity="0.7"/>
  <circle cx="25" cy="145" r="0.8" fill="url(#sparkle2)" opacity="0.5"/>
  
  <!-- Tiny sparkles for extra detail -->
  <circle cx="35" cy="95" r="0.4" fill="#ffffff" opacity="0.4"/>
  <circle cx="155" cy="75" r="0.4" fill="#d0e7ff" opacity="0.5"/>
  <circle cx="95" cy="185" r="0.4" fill="#ffffff" opacity="0.4"/>
  <circle cx="175" cy="15" r="0.4" fill="#a0c4ff" opacity="0.5"/>
  <circle cx="15" cy="175" r="0.4" fill="#ffffff" opacity="0.4"/>
  <circle cx="125" cy="155" r="0.4" fill="#d0e7ff" opacity="0.5"/>
  <circle cx="65" cy="35" r="0.4" fill="#ffffff" opacity="0.4"/>
  <circle cx="185" cy="135" r="0.4" fill="#a0c4ff" opacity="0.5"/>
</svg>
